Coordinates
version=1
nRows=5
nColumns=46
inDegrees=yes

Units are S.I. units (second, meters, Newtons, ...)
Angles are in degrees.

endheader
time	pelvis_tilt	pelvis_list	pelvis_rotation	pelvis_tx	pelvis_ty	pelvis_tz	bb_angle	bb_tx	bb_ty	bb_tz	hip_flexion_r	hip_adduction_r	hip_rotation_r	knee_angle_r	knee_angle_r_beta	ankle_angle_r	subtalar_angle_r	mtp_angle_r	crank_angle_r	hip_flexion_l	hip_adduction_l	hip_rotation_l	knee_angle_l	knee_angle_l_beta	ankle_angle_l	subtalar_angle_l	mtp_angle_l	crank_angle_l	lumbar_extension	lumbar_bending	lumbar_rotation	arm_flex_r	arm_add_r	arm_rot_r	elbow_flex_r	pro_sup_r	wrist_flex_r	wrist_dev_r	arm_flex_l	arm_add_l	arm_rot_l	elbow_flex_l	pro_sup_l	wrist_flex_l	wrist_dev_l
      5.00500000	    -10.03671061	     -0.12949200	      0.00880018	      0.06515735	      1.11485380	     -0.26222997	      0.00000000	      0.50000000	      0.00000000	      0.25000000	     55.47573915	     -1.59671377	      2.39557370	     52.21885302	      0.91139092	     -4.23422017	    -17.52695288	      0.00000000	      0.00000000	     64.38279223	     -3.55915787	      5.64173462	     98.94561552	      1.72692677	    -14.66159162	    -15.31457245	      0.00000000	      0.00000000	    -62.34611922	     -2.40297062	     -2.51460465	     89.59643036	    -11.87992070	     30.10172447	     43.42287946	     29.90018779	      0.00000000	      0.00000000	     89.53431882	    -17.04134810	     33.87811475	     49.11693416	     34.10097107	      0.00000000	      0.00000000
      5.01000000	     -9.91783753	      0.52203807	      0.62508920	      0.06575652	      1.11548718	     -0.26075981	      0.00000000	      0.50000000	      0.00000000	      0.25000000	     53.70421091	     -2.50316553	      2.24579623	     49.84115209	      0.86989221	     -5.25528231	    -17.11212458	      0.00000000	      0.00000000	     65.53061369	     -3.03398578	      5.40732293	    100.55816253	      1.75507103	    -14.19069301	    -14.61406365	      0.00000000	      0.00000000	    -62.50039342	     -2.68328257	     -3.40626361	     89.59081830	    -11.95727663	     30.33683163	     43.00996938	     29.78654201	      0.00000000	      0.00000000	     89.54351553	    -16.82920656	     34.06944812	     49.34704050	     34.03598680	      0.00000000	      0.00000000
      5.01500000	    -10.12042223	      1.20246370	      1.12230290	      0.06644819	      1.11569852	     -0.25905296	      0.00000000	      0.50000000	      0.00000000	      0.25000000	     52.28160283	     -3.31978603	      2.18291159	     47.51941669	      0.82937028	     -5.94920438	    -16.51279245	      0.00000000	      0.00000000	     67.04982447	     -2.62251337	      5.08124733	    102.11475299	      1.78223865	    -14.02461197	    -14.36178725	      0.00000000	      0.00000000	    -62.35885944	     -3.18595207	     -4.33056571	     89.55227548	    -12.14559083	     30.29836255	     42.90170165	     29.76098789	      0.00000000	      0.00000000	     89.55511763	    -16.54288564	     34.13760227	     49.45633161	     34.04093290	      0.00000000	      0.00000000
      5.02000000	     -9.98323475	      1.79611326	      1.90757109	      0.06716384	      1.11675787	     -0.25786096	      0.00000000	      0.50000000	      0.00000000	      0.25000000	     50.38050069	     -4.35048832	      1.70323713	     45.07493948	      0.78670610	     -7.41802361	    -16.23087582	      0.00000000	      0.00000000	     68.21555864	     -1.99444787	      4.96626283	    103.54620320	      1.80722217	    -13.50178205	    -13.25071774	      0.00000000	      0.00000000	    -62.59255034	     -3.20371177	     -5.19195722	     89.56552334	    -12.03365545	     30.57011928	     42.20532433	     29.63904174	      0.00000000	      0.00000000	     89.56924220	    -16.38061376	     34.01219810	     49.62003677	     33.97480774	      0.00000000	      0.00000000
      5.02500000	    -10.04170987	      2.30996803	      2.54965959	      0.06777506	      1.11741105	     -0.25617207	      0.00000000	      0.50000000	      0.00000000	      0.25000000	     48.71216254	     -5.11795004	      1.43241686	     42.75679457	      0.74624684	     -8.59835213	    -15.92149733	      0.00000000	      0.00000000	     69.61609192	     -1.62769166	      4.84345931	    104.95877863	      1.83187627	    -12.82169897	    -12.15618830	      0.00000000	      0.00000000	    -62.57850626	     -3.37432611	     -6.08810611	     89.56889157	    -11.76123133	     30.93098492	     41.35489305	     29.47738700	      0.00000000	      0.00000000	     89.57337488	    -16.26364553	     33.82105152	     49.71150337	     33.82457583	      0.00000000	      0.00000000
